<svg width="15" height="22" viewBox="0 0 15 22" fill="none" xmlns="http://www.w3.org/2000/svg">
<path fill-rule="evenodd" clip-rule="evenodd" d="M7.80007 9.66501C8.4275 9.09433 8.80373 8.42534 8.79996 7.44268C8.78968 4.75882 8.78968 2.89926 8.79225 1.70995C8.79354 1.11529 8.79547 0.688156 8.79709 0.409292L8.79915 0.0997737L8.79999 -8.01508e-08L10.9999 0.0200372L10.9991 0.116908L10.9971 0.422016C10.9955 0.698049 10.9935 1.12252 10.9923 1.71471C10.9897 2.89911 10.9897 4.75423 11 7.43426C11.0065 9.13354 10.2936 10.3702 9.28069 11.2915C8.31951 12.1658 7.07374 12.7672 5.99324 13.2728C5.90793 13.3128 5.82367 13.3521 5.74049 13.3909C4.7022 13.8755 3.83209 14.2816 3.17942 14.7899C2.53078 15.2949 2.21916 15.8067 2.21419 16.51C2.19493 19.2361 2.1987 19.5262 2.20486 19.999C2.209 20.3173 2.21422 20.7182 2.21422 22L0.0142105 22C0.0142106 20.777 0.00916756 20.3717 0.00508966 20.0439C-0.00110252 19.5461 -0.00506883 19.2272 0.0142375 16.4945C0.0253279 14.9248 0.822519 13.8375 1.82743 13.055C2.68857 12.3845 3.78956 11.8725 4.76687 11.418C4.86613 11.3718 4.96411 11.3263 5.06044 11.2812C6.17493 10.7596 7.12085 10.2828 7.80007 9.66501Z" fill="#F5F0F1"/>
<path fill-rule="evenodd" clip-rule="evenodd" d="M7.19993 9.66501C6.5725 9.09433 6.19627 8.42534 6.20003 7.44268C6.21032 4.75882 6.21032 2.89926 6.20775 1.70995C6.20646 1.11529 6.20453 0.688156 6.20291 0.409293L6.20085 0.0997738L6.20001 9.61653e-08L4.00009 0.0200372L4.00091 0.116908L4.00295 0.422016C4.00454 0.698049 4.00647 1.12252 4.00775 1.71471C4.01031 2.89911 4.01031 4.75423 4.00004 7.43426C3.99353 9.13354 4.70637 10.3702 5.71931 11.2915C6.68048 12.1658 7.92626 12.7672 9.00676 13.2728C9.09207 13.3128 9.17633 13.3521 9.25951 13.3909C10.2978 13.8755 11.1679 14.2816 11.8206 14.7899C12.4692 15.2949 12.7808 15.8067 12.7858 16.51C12.8051 19.2361 12.8013 19.5262 12.7951 19.999C12.791 20.3173 12.7858 20.7182 12.7858 22L14.9858 22C14.9858 20.777 14.9908 20.3717 14.9949 20.0439C15.0011 19.5461 15.0051 19.2272 14.9858 16.4945C14.9747 14.9248 14.1775 13.8375 13.1726 13.055C12.3114 12.3845 11.2104 11.8725 10.2331 11.418C10.1339 11.3718 10.0359 11.3263 9.93956 11.2812C8.82507 10.7596 7.87914 10.2828 7.19993 9.66501Z" fill="#F5F0F1"/>
</svg>
